<mxfile host="app.diagrams.net" modified="2023-12-29T15:22:34.289Z" agent="Mozilla/5.0 (Macintosh; Intel Mac OS X 10_15_7) AppleWebKit/605.1.15 (KHTML, like Gecko) Version/17.1.2 Safari/605.1.15" version="22.1.16" etag="lHGDwF4r98_3PFHvkumM" type="github">
  <diagram name="Seite-1" id="6OqDErKgcq4cAJhGBBmo">
    <mxGraphModel>
      <root>
        <mxCell id="0" />
        <mxCell id="1" parent="0" />
      </root>
    </mxGraphModel>
  </diagram>
</mxfile>
